# xmcd CD database file generated by Grip 2.91
# 
# Track frame offsets:
#       150
#       17484
#       30919
#       45213
#       60865
#       77762
#       98942
#       129704
#       150478
#       164265
#       183055
#       199522
#       214606
#       234688
# 
# Disc length: 3473 seconds
# 
# Revision: 3
# Processed by: cddbd v1.4b41PL1 Copyright (c) Steve Scherf et al.
# Submitted via: Grip 2.91
# 
DISCID=9a0d8f0e
DTITLE=Ann Arbor Blues and Jazz Festival 1973 - Vol3: Do You Wanna Jump
DYEAR=1900
DGENRE=
TTITLE0=Do You Wanna Jump
TTITLE1=Chicago Breakdown
TTITLE2=Baby Let's Play House
TTITLE3=13 Highway
TTITLE4=Big Boss Man
TTITLE5=Black Snake Blues
TTITLE6=Mojo In Her Backbone
TTITLE7=Dirty Mother For Ya
TTITLE8=She Wanna Sell My Monkey
TTITLE9=Mr. Downchild
TTITLE10=I Call It Love
TTITLE11=It Hurts Me Too
TTITLE12=Ain't No Sunshine
TTITLE13=Traveling Riverside Blues
EXTD=
EXTT0=
EXTT1=
EXTT2=
EXTT3=
EXTT4=
EXTT5=
EXTT6=
EXTT7=
EXTT8=
EXTT9=
EXTT10=
EXTT11=
EXTT12=
EXTT13=
PLAYORDER=
